<?xml version="1.0" encoding="UTF-8" standalone="no"?>
<!-- Created with Inkscape (http://www.inkscape.org/) -->

<svg
   xmlns:dc="http://purl.org/dc/elements/1.1/"
   xmlns:cc="http://creativecommons.org/ns#"
   xmlns:rdf="http://www.w3.org/1999/02/22-rdf-syntax-ns#"
   xmlns:svg="http://www.w3.org/2000/svg"
   xmlns="http://www.w3.org/2000/svg"
   xmlns:xlink="http://www.w3.org/1999/xlink"
   xmlns:sodipodi="http://sodipodi.sourceforge.net/DTD/sodipodi-0.dtd"
   xmlns:inkscape="http://www.inkscape.org/namespaces/inkscape"
   width="210mm"
   height="297mm"
   id="svg2"
   version="1.1"
   inkscape:version="0.48.2 r9819"
   sodipodi:docname="Groopy_Puzzle.svg">
  <title
     id="title4460">jigsaw-puzzle-II</title>
  <defs
     id="defs4">
    <linearGradient
       id="linearGradient4438">
      <stop
         style="stop-color:#489f03;stop-opacity:1"
         offset="0"
         id="stop4440" />
      <stop
         id="stop4442"
         offset="0.45002469"
         style="stop-color:#55b505;stop-opacity:1" />
      <stop
         style="stop-color:#67d308;stop-opacity:1"
         offset="1"
         id="stop4444" />
    </linearGradient>
    <linearGradient
       id="linearGradient4430">
      <stop
         id="stop4432"
         offset="0"
         style="stop-color:#dd8509;stop-opacity:1" />
      <stop
         style="stop-color:#f1bd0a;stop-opacity:1"
         offset="0.45002469"
         id="stop4434" />
      <stop
         id="stop4436"
         offset="1"
         style="stop-color:#fff44d;stop-opacity:1" />
    </linearGradient>
    <linearGradient
       id="linearGradient4422">
      <stop
         style="stop-color:#139bca;stop-opacity:1"
         offset="0"
         id="stop4424" />
      <stop
         id="stop4426"
         offset="0.45002469"
         style="stop-color:#0e5fb0;stop-opacity:1" />
      <stop
         style="stop-color:#0a57a9;stop-opacity:1"
         offset="1"
         id="stop4428" />
    </linearGradient>
    <linearGradient
       id="linearGradient4414">
      <stop
         id="stop4416"
         offset="0"
         style="stop-color:#ff298f;stop-opacity:1" />
      <stop
         style="stop-color:#d51952;stop-opacity:1;"
         offset="0.45002469"
         id="stop4418" />
      <stop
         id="stop4420"
         offset="1"
         style="stop-color:#b5093b;stop-opacity:1" />
    </linearGradient>
    <linearGradient
       id="linearGradient4039">
      <stop
         id="stop4041"
         offset="0"
         style="stop-color:#489f03;stop-opacity:1" />
      <stop
         style="stop-color:#55b505;stop-opacity:1"
         offset="0.45002469"
         id="stop4043" />
      <stop
         id="stop4045"
         offset="1"
         style="stop-color:#67cd08;stop-opacity:1" />
    </linearGradient>
    <linearGradient
       id="linearGradient4031">
      <stop
         style="stop-color:#dd8509;stop-opacity:1"
         offset="0"
         id="stop4033" />
      <stop
         id="stop4035"
         offset="0.45002469"
         style="stop-color:#f1bd0a;stop-opacity:1" />
      <stop
         style="stop-color:#fcf441;stop-opacity:1"
         offset="1"
         id="stop4037" />
    </linearGradient>
    <linearGradient
       id="linearGradient4015">
      <stop
         id="stop4017"
         offset="0"
         style="stop-color:#137fca;stop-opacity:1" />
      <stop
         style="stop-color:#0e5fb0;stop-opacity:1"
         offset="0.45002469"
         id="stop4019" />
      <stop
         id="stop4021"
         offset="1"
         style="stop-color:#0a57a9;stop-opacity:1" />
    </linearGradient>
    <linearGradient
       id="linearGradient3902">
      <stop
         style="stop-color:#f6296a;stop-opacity:1"
         offset="0"
         id="stop3904" />
      <stop
         id="stop3910"
         offset="0.45002469"
         style="stop-color:#d51952;stop-opacity:1;" />
      <stop
         style="stop-color:#b5093b;stop-opacity:1"
         offset="1"
         id="stop3906" />
    </linearGradient>
    <linearGradient
       id="linearGradient3902-1">
      <stop
         style="stop-color:#f6296a;stop-opacity:1"
         offset="0"
         id="stop3904-9" />
      <stop
         id="stop3910-9"
         offset="0.45002469"
         style="stop-color:#d51952;stop-opacity:1;" />
      <stop
         style="stop-color:#b5093b;stop-opacity:1"
         offset="1"
         id="stop3906-3" />
    </linearGradient>
    <linearGradient
       y2="451.32141"
       x2="602.45502"
       y1="302.12189"
       x1="444.77017"
       gradientTransform="translate(-437.17767,-234.68768)"
       gradientUnits="userSpaceOnUse"
       id="linearGradient3932"
       xlink:href="#linearGradient3902-1"
       inkscape:collect="always" />
    <linearGradient
       inkscape:collect="always"
       xlink:href="#linearGradient4414"
       id="linearGradient4008"
       gradientUnits="userSpaceOnUse"
       gradientTransform="translate(-249.27412,-183.84263)"
       x1="444.77017"
       y1="302.12189"
       x2="602.45502"
       y2="451.32141" />
    <linearGradient
       inkscape:collect="always"
       xlink:href="#linearGradient4422"
       id="linearGradient4013"
       gradientUnits="userSpaceOnUse"
       gradientTransform="translate(-67.29394,-183.86248)"
       x1="444.77017"
       y1="302.12189"
       x2="602.45502"
       y2="451.32141" />
    <linearGradient
       inkscape:collect="always"
       xlink:href="#linearGradient4430"
       id="linearGradient4027"
       gradientUnits="userSpaceOnUse"
       gradientTransform="matrix(-1,0,0,-1,807.09491,750.14304)"
       x1="444.77017"
       y1="302.12189"
       x2="602.45502"
       y2="451.32141" />
    <linearGradient
       inkscape:collect="always"
       xlink:href="#linearGradient4438"
       id="linearGradient4029"
       gradientUnits="userSpaceOnUse"
       gradientTransform="matrix(-1,0,0,-1,989.00187,750.13842)"
       x1="444.77017"
       y1="302.12189"
       x2="602.45502"
       y2="451.32141" />
    <linearGradient
       inkscape:collect="always"
       xlink:href="#linearGradient4015"
       id="linearGradient4361"
       gradientUnits="userSpaceOnUse"
       gradientTransform="translate(-685.30526,-210.73254)"
       x1="444.77017"
       y1="302.12189"
       x2="602.45502"
       y2="451.32141" />
    <linearGradient
       inkscape:collect="always"
       xlink:href="#linearGradient3902"
       id="linearGradient4363"
       gradientUnits="userSpaceOnUse"
       gradientTransform="translate(-867.28544,-210.71269)"
       x1="444.77017"
       y1="302.12189"
       x2="602.45502"
       y2="451.32141" />
    <linearGradient
       inkscape:collect="always"
       xlink:href="#linearGradient4031"
       id="linearGradient4365"
       gradientUnits="userSpaceOnUse"
       gradientTransform="matrix(-1,0,0,-1,189.08359,723.27298)"
       x1="444.77017"
       y1="302.12189"
       x2="602.45502"
       y2="451.32141" />
    <linearGradient
       inkscape:collect="always"
       xlink:href="#linearGradient4039"
       id="linearGradient4367"
       gradientUnits="userSpaceOnUse"
       gradientTransform="matrix(-1,0,0,-1,370.99055,723.26836)"
       x1="444.77017"
       y1="302.12189"
       x2="602.45502"
       y2="451.32141" />
    <filter
       inkscape:collect="always"
       id="filter4402">
      <feGaussianBlur
         inkscape:collect="always"
         stdDeviation="1.0360341"
         id="feGaussianBlur4404" />
    </filter>
    <filter
       inkscape:collect="always"
       id="filter4454">
      <feGaussianBlur
         inkscape:collect="always"
         stdDeviation="0.46367808"
         id="feGaussianBlur4456" />
    </filter>
    <linearGradient
       inkscape:collect="always"
       xlink:href="#linearGradient4438"
       id="linearGradient3309"
       gradientUnits="userSpaceOnUse"
       gradientTransform="matrix(-1,0,0,-1,235.22604,795.39325)"
       x1="444.77017"
       y1="302.12189"
       x2="602.45502"
       y2="451.32141" />
    <linearGradient
       inkscape:collect="always"
       xlink:href="#linearGradient4430"
       id="linearGradient3311"
       gradientUnits="userSpaceOnUse"
       gradientTransform="matrix(-1,0,0,-1,53.319078,795.39787)"
       x1="444.77017"
       y1="302.12189"
       x2="602.45502"
       y2="451.32141" />
    <linearGradient
       inkscape:collect="always"
       xlink:href="#linearGradient4414"
       id="linearGradient3313"
       gradientUnits="userSpaceOnUse"
       gradientTransform="translate(-295.94317,-140.00201)"
       x1="444.77017"
       y1="302.12189"
       x2="602.45502"
       y2="451.32141" />
    <linearGradient
       inkscape:collect="always"
       xlink:href="#linearGradient4422"
       id="linearGradient3315"
       gradientUnits="userSpaceOnUse"
       gradientTransform="translate(-821.06977,-138.60765)"
       x1="444.77017"
       y1="302.12189"
       x2="602.45502"
       y2="451.32141" />
  </defs>
  <sodipodi:namedview
     id="base"
     pagecolor="#ffffff"
     bordercolor="#666666"
     borderopacity="1.0"
     inkscape:pageopacity="0.0"
     inkscape:pageshadow="2"
     inkscape:zoom="0.70710678"
     inkscape:cx="359.71293"
     inkscape:cy="822.02024"
     inkscape:document-units="px"
     inkscape:current-layer="g3245"
     showgrid="false"
     showguides="false"
     inkscape:guide-bbox="true"
     inkscape:snap-bbox="true"
     inkscape:bbox-paths="true"
     inkscape:bbox-nodes="true"
     inkscape:snap-bbox-edge-midpoints="true"
     inkscape:snap-bbox-midpoints="true"
     inkscape:snap-global="false"
     inkscape:window-width="1280"
     inkscape:window-height="752"
     inkscape:window-x="0"
     inkscape:window-y="0"
     inkscape:window-maximized="1">
    <sodipodi:guide
       orientation="1,0"
       position="322.44069,890.95455"
       id="guide3329" />
    <sodipodi:guide
       orientation="0,1"
       position="-166.8772,725.49156"
       id="guide3331" />
  </sodipodi:namedview>
  <metadata
     id="metadata7">
    <rdf:RDF>
      <cc:Work
         rdf:about="">
        <dc:format>image/svg+xml</dc:format>
        <dc:type
           rdf:resource="http://purl.org/dc/dcmitype/StillImage" />
        <dc:title>jigsaw-puzzle-II</dc:title>
        <dc:creator>
          <cc:Agent>
            <dc:title>Sergio Luiz Araujo Silva</dc:title>
          </cc:Agent>
        </dc:creator>
        <dc:rights>
          <cc:Agent>
            <dc:title>Public Domain</dc:title>
          </cc:Agent>
        </dc:rights>
        <dc:subject>
          <rdf:Bag>
            <rdf:li>puzzle</rdf:li>
            <rdf:li>clipart</rdf:li>
          </rdf:Bag>
        </dc:subject>
        <cc:license
           rdf:resource="http://creativecommons.org/licenses/publicdomain/" />
      </cc:Work>
      <cc:License
         rdf:about="http://creativecommons.org/licenses/publicdomain/">
        <cc:permits
           rdf:resource="http://creativecommons.org/ns#Reproduction" />
        <cc:permits
           rdf:resource="http://creativecommons.org/ns#Distribution" />
        <cc:permits
           rdf:resource="http://creativecommons.org/ns#DerivativeWorks" />
      </cc:License>
    </rdf:RDF>
  </metadata>
  <g
     inkscape:groupmode="layer"
     id="layer2"
     inkscape:label="Camada"
     sodipodi:insensitive="true"
     style="display:none">
    <path
       id="path4359"
       d="m 552.90972,468.86998 0,-37.21875 0,-30.5 -0.0313,0 c -0.2098,-2.34542 -1.5723,-4.87945 -3.5625,-6.03125 -2.1646,-1.25273 -4.98535,-1.24181 -7.15625,0 -6.27179,2.42092 -12.59793,6.26757 -19.43753,6.03125 -10.8342,0 -19.7076,-8.51926 -20.25,-19.21875 -0.017,-0.3451 0,-0.68175 0,-1.03125 0,-11.1838 9.0663,-20.25001 20.25,-20.25001 6.9621,0 12.91034,3.77595 19.43753,6.03126 2.1709,1.2419 4.99165,1.2528 7.15625,0 1.9902,-1.15171 3.3527,-3.68586 3.5625,-6.03126 l 0.0313,0 0,-36.5 0,-41.31586 -37.25003,0 -30.5,0 0,0.0313 c -2.3454,0.2098 -4.8794,5.63816 -6.0312,7.62836 -1.2527,2.1646 -1.2418,4.98535 0,7.15625 2.4209,6.2718 6.2676,12.5979 6.0312,19.4375 0,10.8342 -8.5192,19.7076 -19.2187,20.25 -0.3451,0.017 -0.6818,0 -1.0313,0 -11.1838,0 -20.25,-9.0663 -20.25,-20.25 0,-6.9621 3.776,-12.9103 6.0313,-19.4375 1.2419,-2.1709 1.2528,-4.99165 0,-7.15625 -1.1517,-1.9902 -3.6859,-3.3527 -6.0313,-3.5625 l 0,-0.0313 -73.75001,0 0,37.25 0,36.5 -0.031,0 c -0.2098,2.3454 -1.5723,4.87955 -3.5625,6.03126 -2.1646,1.2528 -4.9854,1.2419 -7.1563,0 -6.5272,-2.25531 -12.4754,-6.03126 -19.4375,-6.03126 -11.1837,0 -20.25,9.06621 -20.25,20.25001 0,0.3495 -0.017,0.68615 0,1.03125 0.5424,10.69949 9.4158,19.21875 20.25,19.21875 6.8396,0.23632 13.1657,-3.61033 19.4375,-6.03125 2.1709,-1.24181 4.9917,-1.25273 7.1563,0 1.9902,1.1518 3.3527,3.68583 3.5625,6.03125 l 0.031,0 0,30.5 0,37.21875 67.75001,0 0,-0.0313 c 2.3455,-0.20976 4.8795,-1.5723 6.0313,-3.5625 1.2527,-2.16458 1.2418,-4.98533 0,-7.15625 -2.4209,-6.27181 -6.2676,-12.5979 -6.0313,-19.4375 0,-10.83427 8.5193,-19.70764 19.2188,-20.25 0.3451,-0.0175 0.6817,0 1.0312,0 11.1838,0 20.25,9.06623 20.25,20.25 0,6.9621 -3.7759,12.91024 -6.0312,19.4375 -1.2419,2.17092 -1.2528,4.99167 0,7.15625 1.1517,1.9902 3.6858,3.35274 6.0312,3.5625 l 0,0.0313 z"
       style="color:#000000;fill:#008000;fill-opacity:1;fill-rule:nonzero;stroke:none;stroke-width:0.40000001;marker:none;visibility:visible;display:inline;overflow:visible;enable-background:accumulate"
       inkscape:connector-curvature="0"
       sodipodi:nodetypes="ccccscccsscccccccccscccssccccccccccsscccsccccccscccssccccc" />
    <path
       inkscape:connector-curvature="0"
       id="path4374"
       d="m 369.35633,468.8851 0,-37.21875 0,-30.5 -0.031,0 c -0.2098,-2.34542 -1.5723,-4.87945 -3.5625,-6.03125 -2.1646,-1.25273 -0.9853,-1.24181 -3.1562,0 -6.2718,2.42092 -12.5979,6.26757 -19.4375,6.03125 -10.83421,0 -19.70761,-8.51926 -20.25001,-19.21875 -0.017,-0.3451 0,-0.68175 0,-1.03125 0,-11.1838 9.0663,-20.25001 20.25001,-20.25001 6.9621,0 12.9103,3.77595 19.4375,6.03126 2.1709,1.2419 4.9916,1.2528 7.1562,0 1.9902,-1.15171 3.3527,-3.68586 3.5625,-6.03126 l 0.031,0 0,-16.4375 0,-20.0625 0,-37.25 -37.25,0 -30.50001,0 -6,0 0,-0.0313 c -2.3454,-0.20976 -4.8796,-1.5723 -6.0313,-3.5625 -1.2528,-2.16458 -1.2419,-4.98533 0,-7.15625 2.2553,-6.52726 6.0313,-12.4754 6.0313,-19.4375 0,-11.18377 -9.0662,-20.25 -20.25,-20.25 -0.3495,0 -0.6862,-0.0175 -1.0313,0 -10.6995,0.54236 -19.2187,9.41573 -19.2187,20.25 -0.2363,6.8396 3.6103,13.16569 6.0312,19.4375 1.2418,2.17092 1.2527,4.99167 0,7.15625 -1.1518,1.9902 -3.6857,3.35274 -6.0312,3.5625 l 0,0.0313 -67.75,0 0,37.25 0,20.0625 0,16.4375 -0.031,0 c -0.2098,2.3454 -1.5723,4.87955 -3.5625,6.03126 -2.1646,1.2528 -4.9853,1.2419 -7.1562,0 -6.5272,-2.25531 -12.4754,-6.03126 -19.4375,-6.03126 -11.1837,0 -20.25,9.06621 -20.25,20.25001 0,0.3495 -0.017,0.68615 0,1.03125 0.5424,10.69949 9.4158,19.21875 20.25,19.21875 6.8396,0.23632 13.1657,-3.61033 19.4375,-6.03125 2.1709,-1.24181 4.9916,-1.25273 7.1562,0 1.9902,1.1518 3.3527,3.68583 3.5625,6.03125 l 0.031,0 0,30.5 0,37.21875 67.75,0 0,-0.0313 c 2.3455,-0.20976 4.8794,-1.5723 6.0312,-3.5625 1.2527,-2.16458 1.2418,-4.98533 0,-7.15625 -2.4209,-6.27181 -6.2675,-12.5979 -6.0312,-19.4375 0,-10.83427 8.5192,-19.70764 19.2187,-20.25 0.3451,-0.0175 0.6818,0 1.0313,0 11.1838,0 20.25,9.06623 20.25,20.25 0,6.9621 -3.776,12.91024 -6.0313,19.4375 -1.2419,2.17092 -1.2528,4.99167 0,7.15625 1.1517,1.9902 3.6859,3.35274 6.0313,3.5625 l 0,0.0313 z"
       style="color:#000000;fill:#873e00;fill-opacity:1;fill-rule:nonzero;stroke:none;stroke-width:0.40000001;marker:none;visibility:visible;display:inline;overflow:visible;enable-background:accumulate"
       sodipodi:nodetypes="ccccscccsscccccccccccccsscccscccccccccsscccsccccccscccssccccc" />
    <path
       inkscape:connector-curvature="0"
       id="path4353"
       d="m 368.84753,104.42492 0,37.21875 0,30.5 0.031,0 c 0.2098,2.34542 1.5723,4.87945 3.5625,6.03125 2.1646,1.25273 4.9853,1.24181 7.1562,0 6.2718,-2.42092 12.5979,-6.26757 19.4375,-6.03125 10.8342,0 19.7076,8.51926 20.25,19.21875 0.017,0.3451 0,0.68175 0,1.03125 0,11.1838 -9.0663,20.25 -20.25,20.25 -6.9621,0 -12.9103,-3.77595 -19.4375,-6.03125 -2.1709,-1.2419 -4.9916,-1.2528 -7.1562,0 -1.9902,1.1517 -3.3527,3.68585 -3.5625,6.03125 l -0.031,0 0,16.4375 0,20.0625 0,37.25 37.25,0 30.5,0 6,0 0,0.0313 c 2.3454,0.20976 4.8796,1.5723 6.0313,3.5625 1.2528,2.16458 1.2419,4.98533 0,7.15625 -2.2553,6.52726 -6.0313,12.4754 -6.0313,19.4375 0,11.18377 9.0662,20.25 20.25,20.25 0.3495,0 0.6862,0.0175 1.0313,0 10.6995,-0.54236 19.2187,-9.41573 19.2187,-20.25 0.2363,-6.8396 -3.6103,-13.16569 -6.0312,-19.4375 -1.2418,-2.17092 -1.2527,-4.99167 0,-7.15625 1.1518,-1.9902 3.6857,-8.47926 6.0312,-8.68902 l 0,-0.0313 67.74999,0 0,-32.12348 0,-20.0625 0,-16.4375 0.031,0 c 0.2098,-2.3454 1.5723,-4.87955 3.5625,-6.03125 2.1646,-1.2528 4.9853,-1.2419 7.1562,0 6.5272,2.2553 12.4754,6.03125 19.4375,6.03125 11.1837,0 20.25,-9.0662 20.25,-20.25 0,-0.3495 0.017,-0.68615 0,-1.03125 -0.5424,-10.69949 -9.4158,-19.21875 -20.25,-19.21875 -6.8396,-0.23632 -13.1657,3.61033 -19.4375,6.03125 -2.1709,1.24181 -4.9916,1.25273 -7.1562,0 -1.9902,-1.1518 -3.3527,-3.68583 -3.5625,-6.03125 l -0.031,0 0,-30.5 0,-37.21875 -67.74999,0 0,0.0313 c -2.3455,0.20976 -4.8794,1.5723 -6.0312,3.5625 -1.2527,2.16458 -1.2418,4.98533 0,7.15625 2.4209,6.27181 6.2675,12.5979 6.0312,19.4375 0,10.83427 -8.5192,19.70764 -19.2187,20.25 -0.3451,0.0175 -0.6818,0 -1.0313,0 -11.1838,0 -20.25,-9.06623 -20.25,-20.25 0,-6.9621 3.776,-12.91024 6.0313,-19.4375 1.2419,-2.17092 1.2528,-4.99167 0,-7.15625 -1.1517,-1.9902 -3.6859,-3.35274 -6.0313,-3.5625 l 0,-0.0313 z"
       style="color:#000000;fill:#000080;fill-opacity:0.55984557;fill-rule:nonzero;stroke:none;stroke-width:0.40000001;marker:none;visibility:visible;display:inline;overflow:visible;enable-background:accumulate"
       sodipodi:nodetypes="ccccscccsscccccccccccccsscccscccccccccsscccsccccccscccssccccc" />
    <path
       inkscape:connector-curvature="0"
       style="color:#000000;fill:#800000;fill-opacity:0.82239386;fill-rule:nonzero;stroke:none;stroke-width:0.40000001;marker:none;visibility:visible;display:inline;overflow:visible;filter:url(#filter4402);enable-background:accumulate"
       d="m 187.87872,107.67879 0,37.21875 0,30.5 0.0313,0 c 0.2098,2.34542 1.5723,4.87945 3.5625,6.03125 2.1646,1.25273 4.98535,1.24181 7.15625,0 6.2718,-2.42092 12.59794,-6.26757 19.43754,-6.03125 10.8342,0 19.7076,8.51926 20.25,19.21875 0.017,0.3451 0,0.68175 0,1.03125 0,11.1838 -9.0663,20.25 -20.25,20.25 -6.9621,0 -12.91034,-3.77595 -19.43754,-6.03125 -2.1709,-1.2419 -4.99165,-1.2528 -7.15625,0 -1.9902,1.1517 -3.3527,3.68585 -3.5625,6.03125 l -0.0313,0 0,36.5 0,37.25 37.25004,0 30.5,0 0,-0.0313 c 2.3454,-0.2098 4.8794,-1.5723 6.0312,-3.5625 1.2527,-2.1646 1.2418,-4.98535 0,-7.15625 -2.4209,-6.2718 -6.2676,-12.5979 -6.0312,-19.4375 0,-10.8342 8.5192,-19.7076 19.2187,-20.25 0.3451,-0.017 0.6818,0 1.0313,0 11.1838,0 20.25,9.0663 20.25,20.25 0,6.9621 -3.776,12.9103 -6.0313,19.4375 -1.2419,2.1709 -1.2528,4.99165 0,7.15625 1.1517,1.9902 3.6859,3.3527 6.0313,3.5625 l 0,0.0313 73.75,0 0,-37.25 0,-36.5 0.031,0 c 0.2098,-2.3454 1.5723,-4.87955 3.5625,-6.03125 2.1646,-1.2528 4.9854,-1.2419 7.1563,0 6.5272,2.2553 12.4754,6.03125 19.4375,6.03125 11.1837,0 20.25,-9.0662 20.25,-20.25 0,-0.3495 0.017,-0.68615 0,-1.03125 -0.5424,-10.69949 -9.4158,-19.21875 -20.25,-19.21875 -6.8396,-0.23632 -13.1657,3.61033 -19.4375,6.03125 -2.1709,1.24181 -4.9917,1.25273 -7.1563,0 -1.9902,-1.1518 -3.3527,-3.68583 -3.5625,-6.03125 l -0.031,0 0,-30.5 0,-37.21875 -67.75,0 0,0.0313 c -2.3455,0.20976 -4.8795,1.5723 -6.0313,3.5625 -1.2527,2.16458 -1.2418,4.98533 0,7.15625 2.4209,6.27181 6.2676,12.5979 6.0313,19.4375 0,10.83427 -8.5193,19.70764 -19.2188,20.25 -0.3451,0.0175 -0.6817,0 -1.0312,0 -11.1838,0 -20.25,-9.06623 -20.25,-20.25 0,-6.9621 3.7759,-12.91024 6.0312,-19.4375 1.2419,-2.17092 1.2528,-4.99167 0,-7.15625 -1.1517,-1.9902 -3.6858,-3.35274 -6.0312,-3.5625 l 0,-0.0313 -73.75004,0 z"
       id="path4355" />
    <path
       style="color:#000000;fill:url(#linearGradient4013);fill-opacity:1;fill-rule:nonzero;stroke:#000000;stroke-width:0.40000001;marker:none;visibility:visible;display:inline;overflow:visible;enable-background:accumulate"
       d="m 369.85885,101.29498 0,37.21875 0,30.5 0.031,0 c 0.2098,2.34542 1.5723,4.87945 3.5625,6.03125 2.1646,1.25273 4.9853,1.24181 7.1562,0 6.2718,-2.42092 12.5979,-6.26757 19.4375,-6.03125 10.8342,0 19.7076,8.51926 20.25,19.21875 0.017,0.3451 0,0.68175 0,1.03125 0,11.1838 -9.0663,20.25 -20.25,20.25 -6.9621,0 -12.9103,-3.77595 -19.4375,-6.03125 -2.1709,-1.2419 -4.9916,-1.2528 -7.1562,0 -1.9902,1.1517 -3.3527,3.68585 -3.5625,6.03125 l -0.031,0 0,16.4375 0,20.0625 0,37.25 37.25,0 30.5,0 6,0 0,0.0313 c 2.3454,0.20976 4.8796,1.5723 6.0313,3.5625 1.2528,2.16458 1.2419,4.98533 0,7.15625 -2.2553,6.52726 -6.0313,12.4754 -6.0313,19.4375 0,11.18377 9.0662,20.25 20.25,20.25 0.3495,0 0.6862,0.0175 1.0313,0 10.6995,-0.54236 19.2187,-9.41573 19.2187,-20.25 0.2363,-6.8396 -3.6103,-13.16569 -6.0312,-19.4375 -1.2418,-2.17092 -1.2527,-4.99167 0,-7.15625 1.1518,-1.9902 3.6857,-3.35274 6.0312,-3.5625 l 0,-0.0313 67.75,0 0,-37.25 0,-20.0625 0,-16.4375 0.031,0 c 0.2098,-2.3454 1.5723,-4.87955 3.5625,-6.03125 2.1646,-1.2528 4.9853,-1.2419 7.1562,0 6.5272,2.2553 12.4754,6.03125 19.4375,6.03125 11.1837,0 20.25,-9.0662 20.25,-20.25 0,-0.3495 0.017,-0.68615 0,-1.03125 -0.5424,-10.69949 -9.4158,-19.21875 -20.25,-19.21875 -6.8396,-0.23632 -13.1657,3.61033 -19.4375,6.03125 -2.1709,1.24181 -4.9916,1.25273 -7.1562,0 -1.9902,-1.1518 -3.3527,-3.68583 -3.5625,-6.03125 l -0.031,0 0,-30.5 0,-37.21875 -67.75,0 0,0.0313 c -2.3455,0.20976 -4.8794,1.5723 -6.0312,3.5625 -1.2527,2.16458 -1.2418,4.98533 0,7.15625 2.4209,6.27181 6.2675,12.5979 6.0312,19.4375 0,10.83427 -8.5192,19.70764 -19.2187,20.25 -0.3451,0.0175 -0.6818,0 -1.0313,0 -11.1838,0 -20.25,-9.06623 -20.25,-20.25 0,-6.9621 3.776,-12.91024 6.0313,-19.4375 1.2419,-2.17092 1.2528,-4.99167 0,-7.15625 -1.1517,-1.9902 -3.6859,-3.35274 -6.0313,-3.5625 l 0,-0.0313 -73.75,0 z"
       id="path3971"
       inkscape:connector-curvature="0" />
    <path
       id="path4006"
       d="m 187.87872,101.31483 0,37.21875 0,30.5 0.0313,0 c 0.2098,2.34542 1.5723,4.87945 3.5625,6.03125 2.1646,1.25273 4.98535,1.24181 7.15625,0 6.2718,-2.42092 12.59794,-6.26757 19.43754,-6.03125 10.8342,0 19.7076,8.51926 20.25,19.21875 0.017,0.3451 0,0.68175 0,1.03125 0,11.1838 -9.0663,20.25 -20.25,20.25 -6.9621,0 -12.91034,-3.77595 -19.43754,-6.03125 -2.1709,-1.2419 -4.99165,-1.2528 -7.15625,0 -1.9902,1.1517 -3.3527,3.68585 -3.5625,6.03125 l -0.0313,0 0,36.5 0,37.25 37.25004,0 30.5,0 0,-0.0313 c 2.3454,-0.2098 4.8794,-1.5723 6.0312,-3.5625 1.2527,-2.1646 1.2418,-4.98535 0,-7.15625 -2.4209,-6.2718 -6.2676,-12.5979 -6.0312,-19.4375 0,-10.8342 8.5192,-19.7076 19.2187,-20.25 0.3451,-0.017 0.6818,0 1.0313,0 11.1838,0 20.25,9.0663 20.25,20.25 0,6.9621 -3.776,12.9103 -6.0313,19.4375 -1.2419,2.1709 -1.2528,4.99165 0,7.15625 1.1517,1.9902 3.6859,3.3527 6.0313,3.5625 l 0,0.0313 73.75,0 0,-37.25 0,-36.5 0.031,0 c 0.2098,-2.3454 1.5723,-4.87955 3.5625,-6.03125 2.1646,-1.2528 4.9854,-1.2419 7.1563,0 6.5272,2.2553 12.4754,6.03125 19.4375,6.03125 11.1837,0 20.25,-9.0662 20.25,-20.25 0,-0.3495 0.017,-0.68615 0,-1.03125 -0.5424,-10.69949 -9.4158,-19.21875 -20.25,-19.21875 -6.8396,-0.23632 -13.1657,3.61033 -19.4375,6.03125 -2.1709,1.24181 -4.9917,1.25273 -7.1563,0 -1.9902,-1.1518 -3.3527,-3.68583 -3.5625,-6.03125 l -0.031,0 0,-30.5 0,-37.21875 -67.75,0 0,0.0313 c -2.3455,0.20976 -4.8795,1.5723 -6.0313,3.5625 -1.2527,2.16458 -1.2418,4.98533 0,7.15625 2.4209,6.27181 6.2676,12.5979 6.0313,19.4375 0,10.83427 -8.5193,19.70764 -19.2188,20.25 -0.3451,0.0175 -0.6817,0 -1.0312,0 -11.1838,0 -20.25,-9.06623 -20.25,-20.25 0,-6.9621 3.7759,-12.91024 6.0312,-19.4375 1.2419,-2.17092 1.2528,-4.99167 0,-7.15625 -1.1517,-1.9902 -3.6858,-3.35274 -6.0312,-3.5625 l 0,-0.0313 -73.75004,0 z"
       style="color:#000000;fill:url(#linearGradient4008);fill-opacity:1;fill-rule:nonzero;stroke:#000000;stroke-width:0.40000001;marker:none;visibility:visible;display:inline;overflow:visible;enable-background:accumulate"
       inkscape:connector-curvature="0" />
    <path
       inkscape:connector-curvature="0"
       id="path4023"
       d="m 369.94212,464.98561 0,-37.21875 0,-30.5 -0.031,0 c -0.2098,-2.34542 -1.5723,-4.87945 -3.5625,-6.03125 -2.1646,-1.25273 -4.9853,-1.24181 -7.1562,0 -6.2718,2.42092 -12.5979,6.26757 -19.4375,6.03125 -10.83421,0 -19.70761,-8.51926 -20.25001,-19.21875 -0.017,-0.3451 0,-0.68175 0,-1.03125 0,-11.1838 9.0663,-20.25001 20.25001,-20.25001 6.9621,0 12.9103,3.77595 19.4375,6.03126 2.1709,1.2419 4.9916,1.2528 7.1562,0 1.9902,-1.15171 3.3527,-3.68586 3.5625,-6.03126 l 0.031,0 0,-16.4375 0,-20.0625 0,-37.25 -37.25,0 -30.50001,0 -6,0 0,-0.0313 c -2.3454,-0.20976 -4.8796,-1.5723 -6.0313,-3.5625 -1.2528,-2.16458 -1.2419,-4.98533 0,-7.15625 2.2553,-6.52726 6.0313,-12.4754 6.0313,-19.4375 0,-11.18377 -9.0662,-20.25 -20.25,-20.25 -0.3495,0 -0.6862,-0.0175 -1.0313,0 -10.6995,0.54236 -19.2187,9.41573 -19.2187,20.25 -0.2363,6.8396 3.6103,13.16569 6.0312,19.4375 1.2418,2.17092 1.2527,4.99167 0,7.15625 -1.1518,1.9902 -3.6857,3.35274 -6.0312,3.5625 l 0,0.0313 -67.75,0 0,37.25 0,20.0625 0,16.4375 -0.031,0 c -0.2098,2.3454 -1.5723,4.87955 -3.5625,6.03126 -2.1646,1.2528 -4.9853,1.2419 -7.1562,0 -6.5272,-2.25531 -12.4754,-6.03126 -19.4375,-6.03126 -11.1837,0 -20.25,9.06621 -20.25,20.25001 0,0.3495 -0.017,0.68615 0,1.03125 0.5424,10.69949 9.4158,19.21875 20.25,19.21875 6.8396,0.23632 13.1657,-3.61033 19.4375,-6.03125 2.1709,-1.24181 4.9916,-1.25273 7.1562,0 1.9902,1.1518 3.3527,3.68583 3.5625,6.03125 l 0.031,0 0,30.5 0,37.21875 67.75,0 0,-0.0313 c 2.3455,-0.20976 4.8794,-1.5723 6.0312,-3.5625 1.2527,-2.16458 1.2418,-4.98533 0,-7.15625 -2.4209,-6.27181 -6.2675,-12.5979 -6.0312,-19.4375 0,-10.83427 8.5192,-19.70764 19.2187,-20.25 0.3451,-0.0175 0.6818,0 1.0313,0 11.1838,0 20.25,9.06623 20.25,20.25 0,6.9621 -3.776,12.91024 -6.0313,19.4375 -1.2419,2.17092 -1.2528,4.99167 0,7.15625 1.1517,1.9902 3.6859,3.35274 6.0313,3.5625 l 0,0.0313 73.75001,0 z"
       style="color:#000000;fill:url(#linearGradient4027);fill-opacity:1;fill-rule:nonzero;stroke:#ff6600;stroke-width:0.40000001;marker:none;visibility:visible;display:inline;overflow:visible;enable-background:accumulate" />
    <path
       inkscape:connector-curvature="0"
       style="color:#000000;fill:url(#linearGradient4029);fill-opacity:1;fill-rule:nonzero;stroke:none;stroke-width:0.40000001;marker:none;visibility:visible;display:inline;overflow:visible;enable-background:accumulate"
       d="m 551.84903,464.98093 0,-37.21875 0,-30.5 -0.0313,0 c -0.2098,-2.34542 -1.5723,-4.87945 -3.5625,-6.03125 -2.1646,-1.25273 -4.98535,-1.24181 -7.15625,0 -6.27179,2.42092 -12.59793,6.26757 -19.43753,6.03125 -10.8342,0 -19.7076,-8.51926 -20.25,-19.21875 -0.017,-0.3451 0,-0.68175 0,-1.03125 0,-11.1838 9.0663,-20.25001 20.25,-20.25001 6.9621,0 12.91034,3.77595 19.43753,6.03126 2.1709,1.2419 4.99165,1.2528 7.15625,0 1.9902,-1.15171 3.3527,-3.68586 3.5625,-6.03126 l 0.0313,0 0,-36.5 0,-37.25 -37.25003,0 -30.5,0 0,0.0313 c -2.3454,0.2098 -4.8794,1.5723 -6.0312,3.5625 -1.2527,2.1646 -1.2418,4.98535 0,7.15625 2.4209,6.2718 6.2676,12.5979 6.0312,19.4375 0,10.8342 -8.5192,19.7076 -19.2187,20.25 -0.3451,0.017 -0.6818,0 -1.0313,0 -11.1838,0 -20.25,-9.0663 -20.25,-20.25 0,-6.9621 3.776,-12.9103 6.0313,-19.4375 1.2419,-2.1709 1.2528,-4.99165 0,-7.15625 -1.1517,-1.9902 -3.6859,-3.3527 -6.0313,-3.5625 l 0,-0.0313 -73.75001,0 0,37.25 0,36.5 -0.031,0 c -0.2098,2.3454 -1.5723,4.87955 -3.5625,6.03126 -2.1646,1.2528 -4.9854,1.2419 -7.1563,0 -6.5272,-2.25531 -12.4754,-6.03126 -19.4375,-6.03126 -11.1837,0 -20.25,9.06621 -20.25,20.25001 0,0.3495 -0.017,0.68615 0,1.03125 0.5424,10.69949 9.4158,19.21875 20.25,19.21875 6.8396,0.23632 13.1657,-3.61033 19.4375,-6.03125 2.1709,-1.24181 4.9917,-1.25273 7.1563,0 1.9902,1.1518 3.3527,3.68583 3.5625,6.03125 l 0.031,0 0,30.5 0,37.21875 67.75001,0 0,-0.0313 c 2.3455,-0.20976 4.8795,-1.5723 6.0313,-3.5625 1.2527,-2.16458 1.2418,-4.98533 0,-7.15625 -2.4209,-6.27181 -6.2676,-12.5979 -6.0313,-19.4375 0,-10.83427 8.5193,-19.70764 19.2188,-20.25 0.3451,-0.0175 0.6817,0 1.0312,0 11.1838,0 20.25,9.06623 20.25,20.25 0,6.9621 -3.7759,12.91024 -6.0312,19.4375 -1.2419,2.17092 -1.2528,4.99167 0,7.15625 1.1517,1.9902 3.6858,3.35274 6.0312,3.5625 l 0,0.0313 73.75003,0 z"
       id="path4025" />
    <path
       style="color:#000000;fill:#800000;stroke:none;stroke-width:0.40000001;marker:none;visibility:visible;display:inline;overflow:visible;enable-background:accumulate"
       d="m 259.52406,101.42427 0,0.0313 c 2.3454,0.20976 4.87955,1.5723 6.03125,3.5625 1.2528,2.16458 1.2419,4.98533 0,7.15625 -2.2553,6.52726 -6.03125,12.4754 -6.03125,19.4375 0,11.18377 9.0662,20.25 20.25,20.25 0.3495,0 0.68615,0.0175 1.03125,0 -10.96445,-0.2523 -19.78125,-9.22494 -19.78125,-20.25 0,-6.9621 3.77595,-12.91024 6.03125,-19.4375 1.2419,-2.17092 1.2528,-4.99167 0,-7.15625 -1.1517,-1.9902 -3.68585,-3.35274 -6.03125,-3.5625 l 0,-0.0313 -1.5,0 z m 108.25,0 0,37.21875 0,30.5 0.0313,0 c 0.2098,2.34542 1.5723,4.87945 3.5625,6.03125 1.30644,0.75609 2.84639,1.03234 4.34375,0.875 -0.99195,-0.0989 -1.97815,-0.37405 -2.84375,-0.875 -1.9902,-1.1518 -3.3527,-3.68583 -3.5625,-6.03125 l -0.0313,0 0,-30.5 0,-37.21875 -1.5,0 z m -153.09375,67.71875 c -6.35364,0.23675 -12.27644,3.76164 -18.15625,6.03125 -0.86065,0.49232 -1.82895,0.77165 -2.8125,0.875 1.48859,0.14842 3.00972,-0.12978 4.3125,-0.875 5.8116,-2.24328 11.6673,-5.72249 17.9375,-6.03125 -0.42747,-0.0148 -0.85767,-0.0158 -1.28125,0 z m 183.5,0 c 10.73344,0.11513 19.49255,8.59224 20.03125,19.21875 0.017,0.3451 0,0.68175 0,1.03125 0,10.96128 -8.71785,19.86785 -19.59375,20.21875 0.28331,0.0124 0.55711,0.0313 0.84375,0.0313 11.1837,0 20.25,-9.0662 20.25,-20.25 0,-0.3495 0.017,-0.68615 0,-1.03125 -0.5424,-10.69949 -9.4158,-19.21875 -20.25,-19.21875 -0.42747,-0.0148 -0.85767,-0.0158 -1.28125,0 z m -203.71875,33.53125 c -0.2497,-2.7e-4 -0.50167,0.0377 -0.75,0.0625 0.98355,0.10335 1.95185,0.38265 2.8125,0.875 6.5272,2.2553 12.4754,6.03125 19.4375,6.03125 0.22252,0 0.43546,-0.0241 0.65625,-0.0313 -6.598,-0.28951 -12.33528,-3.83755 -18.59375,-6 -1.08545,-0.62095 -2.31538,-0.93614 -3.5625,-0.9375 z m 180.5,0 c -1.24714,-0.001 -2.51145,0.3111 -3.59375,0.9375 -1.9902,1.1517 -3.3527,3.68585 -3.5625,6.03125 l -0.0313,0 0,36.5 0,37.25 1.5,0 0,-37.25 0,-36.5 0.0313,0 c 0.2098,-2.3454 1.5723,-4.87955 3.5625,-6.03125 0.8656,-0.50098 1.8518,-0.77609 2.84375,-0.875 -0.2569,-0.027 -0.49172,-0.0622 -0.75,-0.0625 z m -102.21875,30.28125 c -10.6995,0.5424 -19.21875,9.4158 -19.21875,20.25 -0.2364,6.8396 3.61035,13.1657 6.03125,19.4375 1.2418,2.1709 1.2527,4.99165 0,7.15625 -1.1518,1.9902 -3.68585,3.3527 -6.03125,3.5625 l 0,0.0313 1.5,0 0,-0.0313 c 2.3454,-0.2098 4.87945,-1.5723 6.03125,-3.5625 1.2527,-2.1646 1.2418,-4.98535 0,-7.15625 -2.4209,-6.2718 -6.26765,-12.5979 -6.03125,-19.4375 0,-10.79159 8.45351,-19.64456 19.09375,-20.25 -0.11592,-0.002 -0.22736,0 -0.34375,0 -0.3495,0 -0.68615,-0.017 -1.03125,0 z"
       id="path4206"
       inkscape:connector-curvature="0" />
    <path
       style="color:#000000;fill:#9ec2e2;fill-opacity:1;stroke:none;stroke-width:0.40000001;marker:none;visibility:visible;display:inline;overflow:visible;enable-background:accumulate"
       d="m 369.89971,101.28214 0,37.21875 0,30.5 0.0313,0 c 0.2098,2.34542 1.5723,4.87945 3.5625,6.03125 1.23555,0.71505 2.70479,1.00852 4.125,0.90625 -0.91665,-0.11866 -1.82222,-0.44165 -2.625,-0.90625 -1.9902,-1.1518 -3.3527,-3.68583 -3.5625,-6.03125 l -0.0313,0 0,-30.5 0,-37.21875 -1.5,0 z"
       id="path4330"
       inkscape:connector-curvature="0" />
    <path
       style="color:#000000;fill:#007bff;fill-opacity:1;stroke:none;stroke-width:0.40000001;marker:none;visibility:visible;display:inline;overflow:visible;enable-background:accumulate"
       d="m 484.14971,101.28214 0,0.0313 c -2.3455,0.20976 -4.87945,1.5723 -6.03125,3.5625 -1.2527,2.16458 -1.2418,4.98533 0,7.15625 2.4209,6.27181 6.26755,12.5979 6.03125,19.4375 0,10.83427 -8.51925,19.70764 -19.21875,20.25 0.15799,0.004 0.30989,0 0.46875,0 0.3495,0 0.68615,0.0175 1.03125,0 10.6995,-0.54236 19.21875,-9.41573 19.21875,-20.25 0.2363,-6.8396 -3.61035,-13.16569 -6.03125,-19.4375 -1.2418,-2.17092 -1.2527,-4.99167 0,-7.15625 1.1518,-1.9902 3.68575,-3.35274 6.03125,-3.5625 l 0,-0.0313 -1.5,0 z"
       id="path4328"
       inkscape:connector-curvature="0" />
    <path
       style="color:#000000;fill:#9ec2e2;fill-opacity:1;stroke:none;stroke-width:0.40000001;marker:none;visibility:visible;display:inline;overflow:visible;filter:url(#filter4454);enable-background:accumulate"
       d="m 401.58721,169.00089 c -0.36339,-0.0126 -0.70194,0.0216 -1.0625,0.0313 10.63502,0.22528 19.27741,8.63213 19.8125,19.1875 0.017,0.3451 0,0.68175 0,1.03125 0,10.80279 -8.4382,19.66111 -19.09375,20.25 0.11611,0.002 0.22708,0 0.34375,0 11.1837,0 20.25,-9.0662 20.25,-20.25 0,-0.3495 0.017,-0.68615 0,-1.03125 -0.5424,-10.69949 -9.4158,-19.21875 -20.25,-19.21875 z"
       id="path4326"
       inkscape:connector-curvature="0" />
    <path
       style="color:#000000;fill:#007bff;fill-opacity:1;stroke:none;stroke-width:0.40000001;marker:none;visibility:visible;display:inline;overflow:visible;enable-background:accumulate"
       d="m 582.08721,169.00089 c -6.8396,-0.23632 -13.1657,3.61033 -19.4375,6.03125 -0.92275,0.52784 -1.94273,0.8257 -3,0.90625 1.54565,0.1935 3.14319,-0.13012 4.5,-0.90625 5.87981,-2.26961 11.83387,-5.76325 18.1875,-6 -0.0834,-0.001 -0.16634,-0.0313 -0.25,-0.0313 z"
       id="path4324"
       inkscape:connector-curvature="0" />
    <path
       style="color:#000000;fill:#ffffff;fill-opacity:0.59073361;stroke:none;stroke-width:0.40000001;marker:none;visibility:visible;display:inline;overflow:visible;enable-background:accumulate"
       d="m 377.08721,202.56339 c -1.24711,-0.001 -2.51145,0.27985 -3.59375,0.90625 -1.9902,1.1517 -3.3527,3.68585 -3.5625,6.03125 l -0.0313,0 0,16.4375 0,20.0625 0,37.25 1.5,0 0,-37.25 0,-20.0625 0,-16.4375 0.0313,0 c 0.2098,-2.3454 1.5723,-4.87955 3.5625,-6.03125 0.81173,-0.4698 1.72886,-0.75889 2.65625,-0.875 -0.18669,-0.0142 -0.37529,-0.031 -0.5625,-0.0313 z"
       id="path4322"
       inkscape:connector-curvature="0" />
    <path
       style="color:#000000;fill:#007bff;fill-opacity:1;stroke:none;stroke-width:0.40000001;marker:none;visibility:visible;display:inline;overflow:visible;enable-background:accumulate"
       d="m 560.58721,202.56339 c -0.18721,-2e-4 -0.37588,0.0174 -0.5625,0.0313 0.92798,0.11777 1.81091,0.40929 2.625,0.875 6.5272,2.2553 12.4754,6.03125 19.4375,6.03125 0.34949,0 0.71736,0.0175 1.0625,0 -6.77199,-0.15528 -12.61202,-3.82405 -19,-6.03125 -1.08545,-0.62095 -2.31539,-0.90489 -3.5625,-0.90625 z"
       id="path4320"
       inkscape:connector-curvature="0" />
    <path
       style="color:#000000;fill:#004000;fill-opacity:1;stroke:none;stroke-width:0.40000001;marker:none;visibility:visible;display:inline;overflow:visible;enable-background:accumulate"
       d="m 443.64971,283.25089 0,0.0313 c 2.3454,0.20976 4.87955,1.5723 6.03125,3.5625 1.2528,2.16458 1.2419,4.98533 0,7.15625 -2.2553,6.52726 -6.03125,12.4754 -6.03125,19.4375 0,11.18377 9.0662,20.25 20.25,20.25 0.15886,0 0.31318,-0.002 0.46875,0 -10.69952,-0.54236 -19.21875,-9.41572 -19.21875,-20.25 0,-6.9621 3.77595,-12.91024 6.03125,-19.4375 1.2419,-2.17092 1.2528,-4.99167 0,-7.15625 -1.1517,-1.9902 -3.68585,-3.35274 -6.03125,-3.5625 l 0,-0.0313 -1.5,0 z"
       id="path4287"
       inkscape:connector-curvature="0" />
    <path
       style="color:#000000;fill:#ffffff;fill-opacity:0.47876449;stroke:none;stroke-width:0.40000001;marker:none;visibility:visible;display:inline;overflow:visible;enable-background:accumulate"
       d="m 370.15625,283 0,37.25 0,36.5 -0.0313,0 c -0.2098,2.3454 -1.5723,4.87954 -3.5625,6.03125 -0.7936,0.45931 -1.65685,0.7538 -2.5625,0.875 1.56562,0.21209 3.1915,-0.0815 4.5625,-0.875 1.9902,-1.15171 3.3527,-3.68585 3.5625,-6.03125 l 0.0313,0 0,-36.5 0,-37.25 -2,0 z m 114.25,0 0,0.0313 c -2.3454,0.2098 -4.87945,1.5723 -6.03125,3.5625 -1.2527,2.1646 -1.2418,4.98535 0,7.15625 2.4209,6.2718 6.26765,12.5979 6.03125,19.4375 0,10.8342 -8.51925,19.7076 -19.21875,20.25 0.32449,0.0154 0.64044,0 0.96875,0 0.3495,0 0.68615,0.017 1.03125,0 10.6995,-0.5424 19.21875,-9.4158 19.21875,-20.25 0.2364,-6.8396 -3.61035,-13.1657 -6.03125,-19.4375 -1.2418,-2.1709 -1.2527,-4.99165 0,-7.15625 1.1518,-1.9902 3.68585,-3.3527 6.03125,-3.5625 l 0,-0.0313 -2,0 z m -144.4375,73.75 c -11.1837,0 -20.25,9.0662 -20.25,20.25 0,0.3495 -0.017,0.68615 0,1.03125 0.5424,10.69949 9.4158,19.21875 20.25,19.21875 0.52157,0.018 1.0467,-0.004 1.5625,-0.0313 -10.63179,-0.22885 -19.27752,-8.63446 -19.8125,-19.1875 -0.017,-0.3451 0,-0.68175 0,-1.03125 0,-10.80279 8.46945,-19.62986 19.125,-20.21875 -0.28652,-0.0127 -0.58508,-0.0313 -0.875,-0.0313 z m 184,0 c -0.34949,0 -0.68611,0.0138 -1.03125,0.0313 6.55523,0.32134 12.24245,3.84865 18.46875,6 1.37499,0.78658 3.02921,1.08438 4.59375,0.875 -0.90625,-0.12277 -1.79784,-0.41968 -2.59375,-0.875 -6.52719,-2.25531 -12.4754,-6.03125 -19.4375,-6.03125 z M 365,390.28125 c -0.3324,3.6e-4 -0.67058,0.0179 -1,0.0625 0.90592,0.12113 1.76867,0.41558 2.5625,0.875 1.9902,1.1518 3.3527,3.68583 3.5625,6.03125 l 0.0313,0 0,30.5 0,37.21875 2,0 0,-37.21875 0,-30.5 -0.0313,0 c -0.2098,-2.34542 -1.5723,-4.87945 -3.5625,-6.03125 -1.0823,-0.62636 -2.31536,-0.93887 -3.5625,-0.9375 z m 180,0 c -1.24712,10e-4 -2.5083,0.3166 -3.59375,0.9375 -5.79352,2.23631 -11.62684,5.67266 -17.875,6 0.14754,0.003 0.28921,0.0313 0.4375,0.0313 6.8396,0.23632 13.16571,-3.61033 19.4375,-6.03125 0.79614,-0.45541 1.68722,-0.7523 2.59375,-0.875 -0.3292,-0.044 -0.6676,-0.0629 -1,-0.0625 z m -85.875,24.25 c -0.0641,0.003 -0.12358,0.0274 -0.1875,0.0313 10.82804,0.40361 19.46875,9.29204 19.46875,20.21875 0,6.9621 -3.77595,12.91024 -6.03125,19.4375 -1.2419,2.17092 -1.2528,4.99167 0,7.15625 1.1517,1.9902 3.68585,3.35274 6.03125,3.5625 l 0,0.0313 2,0 0,-0.0313 c -2.3454,-0.20976 -4.87955,-1.5723 -6.03125,-3.5625 -1.2528,-2.16458 -1.2419,-4.98533 0,-7.15625 2.2553,-6.52726 6.03125,-12.4754 6.03125,-19.4375 0,-11.18377 -9.0662,-20.25 -20.25,-20.25 -0.3495,0 -0.68615,-0.0175 -1.03125,0 z"
       id="path4294"
       inkscape:connector-curvature="0" />
    <path
       style="color:#000000;fill:#bb6a00;fill-opacity:1;stroke:none;stroke-width:0.40000001;marker:none;visibility:visible;display:inline;overflow:visible;enable-background:accumulate"
       d="m 274.98472,232.59611 c 10.68489,0.55791 19.15625,9.42623 19.15625,20.25 0,6.9621 -3.77595,12.91024 -6.03125,19.4375 -1.2419,2.17092 -1.2528,4.99167 0,7.15625 1.1517,1.9902 3.68585,3.35274 6.03125,3.5625 l 0,0.0313 2.125,0 0,-0.0313 c -2.3454,-0.20976 -4.87955,-1.5723 -6.03125,-3.5625 -1.2528,-2.16458 -1.2419,-4.98533 0,-7.15625 2.2553,-6.52726 6.03125,-12.4754 6.03125,-19.4375 0,-11.18377 -9.0662,-20.25 -20.25,-20.25 -0.3495,0 -0.68615,-0.0175 -1.03125,0 z m 92.90625,50.4375 0,37.25 0,20.0625 0,16.4375 -0.0313,0 c -0.2098,2.3454 -1.5723,4.87954 -3.5625,6.03125 -0.77409,0.44802 -1.61783,0.71746 -2.5,0.84375 1.58583,0.22951 3.23449,-0.039 4.625,-0.84375 1.9902,-1.15171 3.3527,-3.68585 3.5625,-6.03125 l 0.0313,0 0,-16.4375 0,-20.0625 0,-37.25 -2.125,0 z m -211.09375,73.75 c -0.0736,0.004 -0.1454,0.0267 -0.21875,0.0313 6.59359,0.29282 12.30734,3.83869 18.5625,6 1.39456,0.79778 3.07157,1.07061 4.65625,0.84375 -0.88282,-0.12777 -1.75491,-0.39963 -2.53125,-0.84375 -6.5272,-2.25531 -12.4754,-6.03125 -19.4375,-6.03125 -0.34949,0 -0.68611,-0.0175 -1.03125,0 z m 179.875,0 c -10.69944,0.54236 -19.21875,9.41569 -19.21875,20.25 0,0.3495 -0.017,0.68615 0,1.03125 0.5424,10.69949 9.41579,19.21875 20.25,19.21875 0.55268,0.0191 1.11003,7e-5 1.65625,-0.0313 -10.6175,-0.24465 -19.2468,-8.64478 -19.78125,-19.1875 -0.017,-0.3451 0,-0.68175 0,-1.03125 0,-10.75982 8.40433,-19.56702 19,-20.21875 -0.28676,-0.0127 -0.58483,-0.0313 -0.875,-0.0313 -0.34949,0 -0.68611,-0.0175 -1.03125,0 z m -157.9375,33.53125 c -1.24711,10e-4 -2.5083,0.3166 -3.59375,0.9375 -5.765,2.22529 -11.56786,5.64375 -17.78125,6 0.15788,0.004 0.31,0.0313 0.46875,0.0313 6.8396,0.23632 13.1657,-3.61033 19.4375,-6.03125 0.79591,-0.45528 1.68751,-0.75224 2.59375,-0.875 -0.37116,-0.0563 -0.74923,-0.0629 -1.125,-0.0625 z m 184.125,0 c -0.33266,3.6e-4 -0.67033,0.0178 -1,0.0625 0.86066,0.1306 1.68131,0.43737 2.4375,0.875 1.9902,1.1518 3.3527,3.68583 3.5625,6.03125 l 0.0313,0 0,30.5 0,37.21875 2.125,0 0,-37.21875 0,-30.5 -0.0313,0 c -0.2098,-2.34542 -1.5723,-4.87945 -3.5625,-6.03125 -1.0823,-0.62636 -2.31539,-0.93887 -3.5625,-0.9375 z m -90,24.25 c -10.6995,0.54236 -19.21875,9.41573 -19.21875,20.25 -0.2363,6.8396 3.61035,13.16569 6.03125,19.4375 1.2418,2.17092 1.2527,4.99167 0,7.15625 -1.1518,1.9902 -3.68575,3.35274 -6.03125,3.5625 l 0,0.0313 2.125,0 0,-0.0313 c 2.3455,-0.20976 4.87945,-1.5723 6.03125,-3.5625 1.2527,-2.16458 1.2418,-4.98533 0,-7.15625 -2.4209,-6.27181 -6.26755,-12.5979 -6.03125,-19.4375 0,-10.82362 8.50281,-19.69181 19.1875,-20.25 -0.34515,-0.0175 -0.71301,0 -1.0625,0 -0.3495,0 -0.68615,-0.0175 -1.03125,0 z"
       id="path4301"
       inkscape:connector-curvature="0" />
    <path
       inkscape:connector-curvature="0"
       style="color:#000000;fill:none;stroke:#800000;stroke-width:0.40000001;marker:none;visibility:visible;display:inline;overflow:visible;enable-background:accumulate"
       d="m 187.87872,101.31483 0,37.21875 0,30.5 0.0313,0 c 0.2098,2.34542 1.5723,4.87945 3.5625,6.03125 2.1646,1.25273 4.98535,1.24181 7.15625,0 6.2718,-2.42092 12.59794,-6.26757 19.43754,-6.03125 10.8342,0 19.7076,8.51926 20.25,19.21875 0.017,0.3451 0,0.68175 0,1.03125 0,11.1838 -9.0663,20.25 -20.25,20.25 -6.9621,0 -12.91034,-3.77595 -19.43754,-6.03125 -2.1709,-1.2419 -4.99165,-1.2528 -7.15625,0 -1.9902,1.1517 -3.3527,3.68585 -3.5625,6.03125 l -0.0313,0 0,36.5 0,37.25 37.25004,0 30.5,0 0,-0.0313 c 2.3454,-0.2098 4.8794,-1.5723 6.0312,-3.5625 1.2527,-2.1646 1.2418,-4.98535 0,-7.15625 -2.4209,-6.2718 -6.2676,-12.5979 -6.0312,-19.4375 0,-10.8342 8.5192,-19.7076 19.2187,-20.25 0.3451,-0.017 0.6818,0 1.0313,0 11.1838,0 20.25,9.0663 20.25,20.25 0,6.9621 -3.776,12.9103 -6.0313,19.4375 -1.2419,2.1709 -1.2528,4.99165 0,7.15625 1.1517,1.9902 3.6859,3.3527 6.0313,3.5625 l 0,0.0313 73.75,0 0,-37.25 0,-36.5 0.031,0 c 0.2098,-2.3454 1.5723,-4.87955 3.5625,-6.03125 2.1646,-1.2528 4.9854,-1.2419 7.1563,0 6.5272,2.2553 12.4754,6.03125 19.4375,6.03125 11.1837,0 20.25,-9.0662 20.25,-20.25 0,-0.3495 0.017,-0.68615 0,-1.03125 -0.5424,-10.69949 -9.4158,-19.21875 -20.25,-19.21875 -6.8396,-0.23632 -13.1657,3.61033 -19.4375,6.03125 -2.1709,1.24181 -4.9917,1.25273 -7.1563,0 -1.9902,-1.1518 -3.3527,-3.68583 -3.5625,-6.03125 l -0.031,0 0,-30.5 0,-37.21875 -67.75,0 0,0.0313 c -2.3455,0.20976 -4.8795,1.5723 -6.0313,3.5625 -1.2527,2.16458 -1.2418,4.98533 0,7.15625 2.4209,6.27181 6.2676,12.5979 6.0313,19.4375 0,10.83427 -8.5193,19.70764 -19.2188,20.25 -0.3451,0.0175 -0.6817,0 -1.0312,0 -11.1838,0 -20.25,-9.06623 -20.25,-20.25 0,-6.9621 3.7759,-12.91024 6.0312,-19.4375 1.2419,-2.17092 1.2528,-4.99167 0,-7.15625 -1.1517,-1.9902 -3.6858,-3.35274 -6.0312,-3.5625 l 0,-0.0313 -73.75004,0 z"
       id="path4310" />
    <path
       inkscape:connector-curvature="0"
       id="path4312"
       d="m 369.85885,101.29498 0,37.21875 0,30.5 0.031,0 c 0.2098,2.34542 1.5723,4.87945 3.5625,6.03125 2.1646,1.25273 4.9853,1.24181 7.1562,0 6.2718,-2.42092 12.5979,-6.26757 19.4375,-6.03125 10.8342,0 19.7076,8.51926 20.25,19.21875 0.017,0.3451 0,0.68175 0,1.03125 0,11.1838 -9.0663,20.25 -20.25,20.25 -6.9621,0 -12.9103,-3.77595 -19.4375,-6.03125 -2.1709,-1.2419 -4.9916,-1.2528 -7.1562,0 -1.9902,1.1517 -3.3527,3.68585 -3.5625,6.03125 l -0.031,0 0,16.4375 0,20.0625 0,37.25 37.25,0 30.5,0 6,0 0,0.0313 c 2.3454,0.20976 4.8796,1.5723 6.0313,3.5625 1.2528,2.16458 1.2419,4.98533 0,7.15625 -2.2553,6.52726 -6.0313,12.4754 -6.0313,19.4375 0,11.18377 9.0662,20.25 20.25,20.25 0.3495,0 0.6862,0.0175 1.0313,0 10.6995,-0.54236 19.2187,-9.41573 19.2187,-20.25 0.2363,-6.8396 -3.6103,-13.16569 -6.0312,-19.4375 -1.2418,-2.17092 -1.2527,-4.99167 0,-7.15625 1.1518,-1.9902 3.6857,-3.35274 6.0312,-3.5625 l 0,-0.0313 67.75,0 0,-37.25 0,-20.0625 0,-16.4375 0.031,0 c 0.2098,-2.3454 1.5723,-4.87955 3.5625,-6.03125 2.1646,-1.2528 4.9853,-1.2419 7.1562,0 6.5272,2.2553 12.4754,6.03125 19.4375,6.03125 11.1837,0 20.25,-9.0662 20.25,-20.25 0,-0.3495 0.017,-0.68615 0,-1.03125 -0.5424,-10.69949 -9.4158,-19.21875 -20.25,-19.21875 -6.8396,-0.23632 -13.1657,3.61033 -19.4375,6.03125 -2.1709,1.24181 -4.9916,1.25273 -7.1562,0 -1.9902,-1.1518 -3.3527,-3.68583 -3.5625,-6.03125 l -0.031,0 0,-30.5 0,-37.21875 -67.75,0 0,0.0313 c -2.3455,0.20976 -4.8794,1.5723 -6.0312,3.5625 -1.2527,2.16458 -1.2418,4.98533 0,7.15625 2.4209,6.27181 6.2675,12.5979 6.0312,19.4375 0,10.83427 -8.5192,19.70764 -19.2187,20.25 -0.3451,0.0175 -0.6818,0 -1.0313,0 -11.1838,0 -20.25,-9.06623 -20.25,-20.25 0,-6.9621 3.776,-12.91024 6.0313,-19.4375 1.2419,-2.17092 1.2528,-4.99167 0,-7.15625 -1.1517,-1.9902 -3.6859,-3.35274 -6.0313,-3.5625 l 0,-0.0313 -73.75,0 z"
       style="color:#000000;fill:none;stroke:#000080;stroke-width:0.40000001;marker:none;visibility:visible;display:inline;overflow:visible;enable-background:accumulate" />
    <path
       style="color:#000000;fill:none;stroke:none;stroke-width:0.40000001;marker:none;visibility:visible;display:inline;overflow:visible;enable-background:accumulate"
       d="m 369.94212,464.98561 0,-37.21875 0,-30.5 -0.031,0 c -0.2098,-2.34542 -1.5723,-4.87945 -3.5625,-6.03125 -2.1646,-1.25273 -4.9853,-1.24181 -7.1562,0 -6.2718,2.42092 -12.5979,6.26757 -19.4375,6.03125 -10.83421,0 -19.70761,-8.51926 -20.25001,-19.21875 -0.017,-0.3451 0,-0.68175 0,-1.03125 0,-11.1838 9.0663,-20.25001 20.25001,-20.25001 6.9621,0 12.9103,3.77595 19.4375,6.03126 2.1709,1.2419 4.9916,1.2528 7.1562,0 1.9902,-1.15171 3.3527,-3.68586 3.5625,-6.03126 l 0.031,0 0,-16.4375 0,-20.0625 0,-37.25 -37.25,0 -30.50001,0 -6,0 0,-0.0313 c -2.3454,-0.20976 -4.8796,-1.5723 -6.0313,-3.5625 -1.2528,-2.16458 -1.2419,-4.98533 0,-7.15625 2.2553,-6.52726 6.0313,-12.4754 6.0313,-19.4375 0,-11.18377 -9.0662,-20.25 -20.25,-20.25 -0.3495,0 -0.6862,-0.0175 -1.0313,0 -10.6995,0.54236 -19.2187,9.41573 -19.2187,20.25 -0.2363,6.8396 3.6103,13.16569 6.0312,19.4375 1.2418,2.17092 1.2527,4.99167 0,7.15625 -1.1518,1.9902 -3.6857,3.35274 -6.0312,3.5625 l 0,0.0313 -67.75,0 0,37.25 0,20.0625 0,16.4375 -0.031,0 c -0.2098,2.3454 -1.5723,4.87955 -3.5625,6.03126 -2.1646,1.2528 -4.9853,1.2419 -7.1562,0 -6.5272,-2.25531 -12.4754,-6.03126 -19.4375,-6.03126 -11.1837,0 -20.25,9.06621 -20.25,20.25001 0,0.3495 -0.017,0.68615 0,1.03125 0.5424,10.69949 9.4158,19.21875 20.25,19.21875 6.8396,0.23632 13.1657,-3.61033 19.4375,-6.03125 2.1709,-1.24181 4.9916,-1.25273 7.1562,0 1.9902,1.1518 3.3527,3.68583 3.5625,6.03125 l 0.031,0 0,30.5 0,37.21875 67.75,0 0,-0.0313 c 2.3455,-0.20976 4.8794,-1.5723 6.0312,-3.5625 1.2527,-2.16458 1.2418,-4.98533 0,-7.15625 -2.4209,-6.27181 -6.2675,-12.5979 -6.0312,-19.4375 0,-10.83427 8.5192,-19.70764 19.2187,-20.25 0.3451,-0.0175 0.6818,0 1.0313,0 11.1838,0 20.25,9.06623 20.25,20.25 0,6.9621 -3.776,12.91024 -6.0313,19.4375 -1.2419,2.17092 -1.2528,4.99167 0,7.15625 1.1517,1.9902 3.6859,3.35274 6.0313,3.5625 l 0,0.0313 73.75001,0 z"
       id="path4314"
       inkscape:connector-curvature="0" />
    <path
       id="path4316"
       d="m 551.72403,464.98093 0,-37.21875 0,-30.5 -0.0313,0 c -0.2098,-2.34542 -1.5723,-4.87945 -3.5625,-6.03125 -2.1646,-1.25273 -4.98535,-1.24181 -7.15625,0 -6.27179,2.42092 -12.59793,6.26757 -19.43753,6.03125 -10.8342,0 -19.7076,-8.51926 -20.25,-19.21875 -0.017,-0.3451 0,-0.68175 0,-1.03125 0,-11.1838 9.0663,-20.25001 20.25,-20.25001 6.9621,0 12.91034,3.77595 19.43753,6.03126 2.1709,1.2419 4.99165,1.2528 7.15625,0 1.9902,-1.15171 3.3527,-3.68586 3.5625,-6.03126 l 0.0313,0 0,-36.5 0,-37.25 -37.25003,0 -30.5,0 0,0.0313 c -2.3454,0.2098 -4.8794,1.5723 -6.0312,3.5625 -1.2527,2.1646 -1.2418,4.98535 0,7.15625 2.4209,6.2718 6.2676,12.5979 6.0312,19.4375 0,10.8342 -8.5192,19.7076 -19.2187,20.25 -0.3451,0.017 -0.6818,0 -1.0313,0 -11.1838,0 -20.25,-9.0663 -20.25,-20.25 0,-6.9621 3.776,-12.9103 6.0313,-19.4375 1.2419,-2.1709 1.2528,-4.99165 0,-7.15625 -1.1517,-1.9902 -3.6859,-3.3527 -6.0313,-3.5625 l 0,-0.0313 -73.75001,0 0,37.25 0,36.5 -0.031,0 c -0.2098,2.3454 -1.5723,4.87955 -3.5625,6.03126 -2.1646,1.2528 -4.9854,1.2419 -7.1563,0 -6.5272,-2.25531 -12.4754,-6.03126 -19.4375,-6.03126 -11.1837,0 -20.25,9.06621 -20.25,20.25001 0,0.3495 -0.017,0.68615 0,1.03125 0.5424,10.69949 9.4158,19.21875 20.25,19.21875 6.8396,0.23632 13.1657,-3.61033 19.4375,-6.03125 2.1709,-1.24181 4.9917,-1.25273 7.1563,0 1.9902,1.1518 3.3527,3.68583 3.5625,6.03125 l 0.031,0 0,30.5 0,37.21875 67.75001,0 0,-0.0313 c 2.3455,-0.20976 4.8795,-1.5723 6.0313,-3.5625 1.2527,-2.16458 1.2418,-4.98533 0,-7.15625 -2.4209,-6.27181 -6.2676,-12.5979 -6.0313,-19.4375 0,-10.83427 8.5193,-19.70764 19.2188,-20.25 0.3451,-0.0175 0.6817,0 1.0312,0 11.1838,0 20.25,9.06623 20.25,20.25 0,6.9621 -3.7759,12.91024 -6.0312,19.4375 -1.2419,2.17092 -1.2528,4.99167 0,7.15625 1.1517,1.9902 3.6858,3.35274 6.0312,3.5625 l 0,0.0313 73.75003,0 z"
       style="color:#000000;fill:none;stroke:#000000;stroke-width:0.40000001;marker:none;visibility:visible;display:inline;overflow:visible;enable-background:accumulate"
       inkscape:connector-curvature="0" />
    <path
       style="color:#000000;fill:#008000;stroke:none;stroke-width:0.40000001;marker:none;visibility:visible;display:inline;overflow:visible;enable-background:accumulate"
       d="m 549.50314,282.78217 0,37.25 0,36.5 -0.0313,0 c -0.2098,2.3454 -1.5723,4.87954 -3.5625,6.03125 -0.77392,0.44792 -1.64927,0.71742 -2.53125,0.84375 1.58602,0.22966 3.23432,-0.0389 4.625,-0.84375 1.9902,-1.15171 3.3527,-3.68585 3.5625,-6.03125 l 0.0313,0 0,-36.5 0,-37.25 z m -30.1875,73.75 c -11.1837,0 -20.25,9.0662 -20.25,20.25 0,0.3495 -0.017,0.68615 0,1.03125 0.5424,10.69949 9.4158,19.21875 20.25,19.21875 0.54231,0.0187 1.05767,-0.001 1.59375,-0.0313 -10.6029,-0.26073 -19.21608,-8.65531 -19.75,-19.1875 -0.017,-0.3451 0,-0.68175 0,-1.03125 0,-10.78179 8.43622,-19.59905 19.0625,-20.21875 -0.30374,-0.0143 -0.59869,-0.0313 -0.90625,-0.0313 z m 25.125,33.53125 c -0.35515,3.9e-4 -0.71099,0.0429 -1.0625,0.0937 0.88218,0.12628 1.75716,0.39576 2.53125,0.84375 1.9902,1.1518 3.3527,3.68583 3.5625,6.03125 l 0.0313,0 0,30.5 0,37.21875 2.09375,0 0,-37.21875 0,-30.5 -0.0313,0 c -0.2098,-2.34542 -1.5723,-4.87945 -3.5625,-6.03125 -1.0823,-0.62636 -2.31538,-0.93887 -3.5625,-0.9375 z"
       id="path4339"
       inkscape:connector-curvature="0"
       sodipodi:nodetypes="ccccccccccccssccccscsscsccccccccss" />
    <path
       style="color:#000000;fill:#000080;fill-opacity:0.43629342;stroke:none;stroke-width:0.40000001;marker:none;visibility:visible;display:inline;overflow:visible;enable-background:accumulate"
       d="m 548.6973,101.04381 0,37.21875 0,30.5 0.0313,0 c 0.2098,2.34542 1.5723,4.87945 3.5625,6.03125 1.5116,0.87481 3.35572,1.12774 5.0625,0.78125 -0.71415,-0.1509 -1.42818,-0.41414 -2.0625,-0.78125 -1.9902,-1.1518 -3.3527,-3.68583 -3.5625,-6.03125 l -0.0313,0 0,-30.5 0,-37.21875 z m 33.1875,67.71875 c -0.65681,-0.0227 -1.28975,0.0148 -1.9375,0.0625 10.34949,0.53218 18.66283,8.80649 19.1875,19.15625 0.017,0.3451 0,0.68175 0,1.03125 0,10.66529 -8.22378,19.4313 -18.6875,20.21875 0.47829,0.0352 0.9498,0.0313 1.4375,0.0313 11.1837,0 20.25,-9.0662 20.25,-20.25 0,-0.3495 0.017,-0.68615 0,-1.03125 -0.5424,-10.69954 -9.4158,-19.2188 -20.25,-19.2188 z m -26,33.5625 c -1.24711,-0.001 -2.51145,0.27985 -3.59375,0.90625 -1.9902,1.1517 -3.3527,3.68585 -3.5625,6.03125 l -0.0313,0 0,16.4375 0,20.0625 0,37.25 3,0 0,-37.25 0,-20.0625 0,-16.4375 0.0313,0 c 0.2098,-2.3454 1.5723,-4.87955 3.5625,-6.03125 0.64327,-0.3723 1.36887,-0.60004 2.09375,-0.75 -0.49525,-0.1029 -0.99412,-0.1557 -1.5,-0.15625 z"
       id="path4346"
       inkscape:connector-curvature="0"
       sodipodi:nodetypes="ccccscsccccccccscssccscccccccccccccs" />
  </g>
  <g
     inkscape:label="Camada copy"
     id="g3245"
     inkscape:groupmode="layer">
    <path
       inkscape:connector-curvature="0"
       style="color:#000000;fill:url(#linearGradient3313);fill-opacity:1;fill-rule:nonzero;stroke:#ffffff;stroke-width:2;stroke-miterlimit:4;stroke-opacity:1;stroke-dasharray:none;marker:none;visibility:visible;display:inline;overflow:visible;enable-background:accumulate"
       d="m 141.20967,145.15545 0,37.21875 0,30.5 0.0313,0 c 0.2098,2.34542 1.5723,4.87945 3.5625,6.03125 2.1646,1.25273 4.98535,1.24181 7.15625,0 6.2718,-2.42092 12.59794,-6.26757 19.43754,-6.03125 10.8342,0 19.7076,8.51926 20.25,19.21875 0.017,0.3451 0,0.68175 0,1.03125 0,11.1838 -9.0663,20.25 -20.25,20.25 -6.9621,0 -12.91034,-3.77595 -19.43754,-6.03125 -2.1709,-1.2419 -4.99165,-1.2528 -7.15625,0 -1.9902,1.1517 -3.3527,3.68585 -3.5625,6.03125 l -0.0313,0 0,36.5 0,37.25 37.25004,0 30.5,0 0,-0.0313 c 2.3454,-0.2098 4.8794,-1.5723 6.0312,-3.5625 1.2527,-2.1646 1.2418,-4.98535 0,-7.15625 -2.4209,-6.2718 -6.2676,-12.5979 -6.0312,-19.4375 0,-10.8342 8.5192,-19.7076 19.2187,-20.25 0.3451,-0.017 0.6818,0 1.0313,0 11.1838,0 20.25,9.0663 20.25,20.25 0,6.9621 -3.776,12.9103 -6.0313,19.4375 -1.2419,2.1709 -1.2528,4.99165 0,7.15625 1.1517,1.9902 3.6859,3.3527 6.0313,3.5625 l 0,0.0313 73.75,0 0,-37.25 0,-36.5 0.031,0 c 0.2098,-2.3454 1.5723,-4.87955 3.5625,-6.03125 2.1646,-1.2528 4.9854,-1.2419 7.1563,0 6.5272,2.2553 12.4754,6.03125 19.4375,6.03125 11.1837,0 20.25001,-9.0662 20.25001,-20.25 0,-0.3495 0.017,-0.68615 0,-1.03125 -0.5424,-10.69949 -9.41581,-19.21875 -20.25001,-19.21875 -6.8396,-0.23632 -13.1657,3.61033 -19.4375,6.03125 -2.1709,1.24181 -4.9917,1.25273 -7.1563,0 -1.9902,-1.1518 -3.3527,-3.68583 -3.5625,-6.03125 l -0.031,0 0,-30.5 0,-37.21875 -67.75,0 0,0.0313 c -2.3455,0.20976 -4.8795,1.5723 -6.0313,3.5625 -1.2527,2.16458 -1.2418,4.98533 0,7.15625 2.4209,6.27181 6.2676,12.5979 6.0313,19.4375 0,10.83427 -8.5193,19.70764 -19.2188,20.25 -0.3451,0.0175 -0.6817,0 -1.0312,0 -11.1838,0 -20.25,-9.06623 -20.25,-20.25 0,-6.9621 3.7759,-12.91024 6.0312,-19.4375 1.2419,-2.17092 1.2528,-4.99167 0,-7.15625 -1.1517,-1.9902 -3.6858,-3.35274 -6.0312,-3.5625 l 0,-0.0313 -73.75004,0 z"
       id="path3257" />
    <path
       id="path4113"
       d="m 504.6871,144.66612 -37.21875,0 -30.5,0 0,0.0313 c -2.34542,0.2098 -4.87945,1.5723 -6.03125,3.5625 -1.25273,2.1646 -1.24181,4.98535 0,7.15625 2.42092,6.2718 6.26757,12.59794 6.03125,19.43754 0,10.8342 -8.51926,19.7076 -19.21875,20.25 -0.3451,0.017 -0.68175,0 -1.03125,0 -11.1838,0 -20.25,-9.0663 -20.25,-20.25 0,-6.9621 3.77595,-12.91034 6.03125,-19.43754 1.2419,-2.1709 1.2528,-4.99165 0,-7.15625 -1.1517,-1.9902 -3.68585,-3.3527 -6.03125,-3.5625 l 0,-0.0313 -36.5,0 -37.25,0 0,37.25004 0,30.5 0.0313,0 c 0.2098,2.3454 1.5723,4.8794 3.5625,6.0312 2.1646,1.2527 4.98535,1.2418 7.15625,0 6.2718,-2.4209 12.5979,-6.2676 19.4375,-6.0312 10.8342,0 19.7076,8.5192 20.25,19.2187 0.017,0.3451 0,0.6818 0,1.0313 0,11.1838 -9.0663,20.25 -20.25,20.25 -6.9621,0 -12.9103,-3.776 -19.4375,-6.0313 -2.1709,-1.2419 -4.99165,-1.2528 -7.15625,0 -1.9902,1.1517 -3.3527,3.6859 -3.5625,6.0313 l -0.0313,0 0,73.75 37.25,0 36.5,0 0,0.031 c 2.3454,0.2098 4.87955,1.5723 6.03125,3.5625 1.2528,2.1646 1.2419,4.9854 0,7.1563 -2.2553,6.5272 -6.03125,12.4754 -6.03125,19.4375 0,11.1837 9.0662,20.25001 20.25,20.25001 0.3495,0 0.68615,0.017 1.03125,0 10.69949,-0.5424 19.21875,-9.41581 19.21875,-20.25001 0.23632,-6.8396 -3.61033,-13.1657 -6.03125,-19.4375 -1.24181,-2.1709 -1.25273,-4.9917 0,-7.1563 1.1518,-1.9902 3.68583,-3.3527 6.03125,-3.5625 l 0,-0.031 30.5,0 37.21875,0 0,-67.75 -0.0313,0 c -0.20976,-2.3455 -1.5723,-4.8795 -3.5625,-6.0313 -2.16458,-1.2527 -4.98533,-1.2418 -7.15625,0 -6.27181,2.4209 -12.5979,6.2676 -19.4375,6.0313 -10.83427,0 -19.70764,-8.5193 -20.25,-19.2188 -0.0175,-0.3451 0,-0.6817 0,-1.0312 0,-11.1838 9.06623,-20.25 20.25,-20.25 6.9621,0 12.91024,3.7759 19.4375,6.0312 2.17092,1.2419 4.99167,1.2528 7.15625,0 1.9902,-1.1517 3.35274,-3.6858 3.5625,-6.0312 l 0.0313,0 0,-73.75004 z"
       style="color:#000000;fill:#00cd00;fill-opacity:1;fill-rule:nonzero;stroke:#ffffff;stroke-width:2;stroke-miterlimit:4;stroke-opacity:1;stroke-dasharray:none;marker:none;visibility:visible;display:inline;overflow:visible;enable-background:accumulate"
       inkscape:connector-curvature="0" />
    <path
       inkscape:connector-curvature="0"
       style="color:#000000;fill:#1010c1;fill-opacity:1;fill-rule:nonzero;stroke:#ffffff;stroke-width:2;stroke-miterlimit:4;stroke-opacity:1;stroke-dasharray:none;marker:none;visibility:visible;display:inline;overflow:visible;enable-background:accumulate"
       d="m 503.76223,508.14355 0,-37.21875 0,-30.5 -0.0313,0 c -0.2098,-2.34542 -1.5723,-4.87945 -3.5625,-6.03125 -2.1646,-1.25273 -4.98535,-1.24181 -7.15625,0 -6.2718,2.42092 -12.59794,6.26757 -19.43754,6.03125 -10.8342,0 -19.7076,-8.51926 -20.25,-19.21875 -0.017,-0.3451 0,-0.68175 0,-1.03125 0,-11.1838 9.0663,-20.25 20.25,-20.25 6.9621,0 12.91034,3.77595 19.43754,6.03125 2.1709,1.2419 4.99165,1.2528 7.15625,0 1.9902,-1.1517 3.3527,-3.68585 3.5625,-6.03125 l 0.0313,0 0,-36.5 0,-37.25 -37.25004,0 -30.5,0 0,0.0313 c -2.3454,0.2098 -4.8794,1.5723 -6.0312,3.5625 -1.2527,2.1646 -1.2418,4.98535 0,7.15625 2.4209,6.2718 6.2676,12.5979 6.0312,19.4375 0,10.8342 -8.5192,19.7076 -19.2187,20.25 -0.3451,0.017 -0.6818,0 -1.0313,0 -11.1838,0 -20.25,-9.0663 -20.25,-20.25 0,-6.9621 3.776,-12.9103 6.0313,-19.4375 1.2419,-2.1709 1.2528,-4.99165 0,-7.15625 -1.1517,-1.9902 -3.6859,-3.3527 -6.0313,-3.5625 l 0,-0.0313 -73.75,0 0,37.25 0,36.5 -0.031,0 c -0.2098,2.3454 -1.5723,4.87955 -3.5625,6.03125 -2.1646,1.2528 -4.9854,1.2419 -7.1563,0 -6.5272,-2.2553 -12.4754,-6.03125 -19.4375,-6.03125 -11.1837,0 -20.25001,9.0662 -20.25001,20.25 0,0.3495 -0.017,0.68615 0,1.03125 0.5424,10.69949 9.41581,19.21875 20.25001,19.21875 6.8396,0.23632 13.1657,-3.61033 19.4375,-6.03125 2.1709,-1.24181 4.9917,-1.25273 7.1563,0 1.9902,1.1518 3.3527,3.68583 3.5625,6.03125 l 0.031,0 0,30.5 0,37.21875 67.75,0 0,-0.0313 c 2.3455,-0.20976 4.8795,-1.5723 6.0313,-3.5625 1.2527,-2.16458 1.2418,-4.98533 0,-7.15625 -2.4209,-6.27181 -6.2676,-12.5979 -6.0313,-19.4375 0,-10.83427 8.5193,-19.70764 19.2188,-20.25 0.3451,-0.0175 0.6817,0 1.0312,0 11.1838,0 20.25,9.06623 20.25,20.25 0,6.9621 -3.7759,12.91024 -6.0312,19.4375 -1.2419,2.17092 -1.2528,4.99167 0,7.15625 1.1517,1.9902 3.6858,3.35274 6.0312,3.5625 l 0,0.0313 73.75004,0 z"
       id="path4146" />
    <path
       id="path4150"
       d="m 140.99192,507.92578 37.21875,0 30.5,0 0,-0.0313 c 2.34542,-0.2098 4.87945,-1.5723 6.03125,-3.5625 1.25273,-2.1646 1.24181,-4.98535 0,-7.15625 -2.42092,-6.2718 -6.26757,-12.59794 -6.03125,-19.43754 0,-10.8342 8.51926,-19.7076 19.21875,-20.25 0.3451,-0.017 0.68175,0 1.03125,0 11.1838,0 20.25,9.0663 20.25,20.25 0,6.9621 -3.77595,12.91034 -6.03125,19.43754 -1.2419,2.1709 -1.2528,4.99165 0,7.15625 1.1517,1.9902 3.68585,3.3527 6.03125,3.5625 l 0,0.0313 36.5,0 37.25,0 0,-37.25004 0,-30.5 -0.0313,0 c -0.2098,-2.3454 -1.5723,-4.8794 -3.5625,-6.0312 -2.1646,-1.2527 -4.98535,-1.2418 -7.15625,0 -6.2718,2.4209 -12.5979,6.2676 -19.4375,6.0312 -10.8342,0 -19.7076,-8.5192 -20.25,-19.2187 -0.017,-0.3451 0,-0.6818 0,-1.0313 0,-11.1838 9.0663,-20.25 20.25,-20.25 6.9621,0 12.9103,3.776 19.4375,6.0313 2.1709,1.2419 4.99165,1.2528 7.15625,0 1.9902,-1.1517 3.3527,-3.6859 3.5625,-6.0313 l 0.0313,0 0,-73.75 -37.25,0 -36.5,0 0,-0.031 c -2.3454,-0.2098 -4.87955,-1.5723 -6.03125,-3.5625 -1.2528,-2.1646 -1.2419,-4.9854 0,-7.1563 2.2553,-6.5272 6.03125,-12.4754 6.03125,-19.4375 0,-11.1837 -9.0662,-20.25001 -20.25,-20.25001 -0.3495,0 -0.68615,-0.017 -1.03125,0 -10.69949,0.5424 -19.21875,9.41581 -19.21875,20.25001 -0.23632,6.8396 3.61033,13.1657 6.03125,19.4375 1.24181,2.1709 1.25273,4.9917 0,7.1563 -1.1518,1.9902 -3.68583,3.3527 -6.03125,3.5625 l 0,0.031 -30.5,0 -37.21875,0 0,67.75 0.0313,0 c 0.20976,2.3455 1.5723,4.8795 3.5625,6.0313 2.16458,1.2527 4.98533,1.2418 7.15625,0 6.27181,-2.4209 12.5979,-6.2676 19.4375,-6.0313 10.83427,0 19.70764,8.5193 20.25,19.2188 0.0175,0.3451 0,0.6817 0,1.0312 0,11.1838 -9.06623,20.25 -20.25,20.25 -6.9621,0 -12.91024,-3.7759 -19.4375,-6.0312 -2.17092,-1.2419 -4.99167,-1.2528 -7.15625,0 -1.9902,1.1517 -3.35274,3.6858 -3.5625,6.0312 l -0.0313,0 0,73.75004 z"
       style="color:#000000;fill:#ffcb00;fill-opacity:1;fill-rule:nonzero;stroke:#ffffff;stroke-width:2;stroke-miterlimit:4;stroke-opacity:1;stroke-dasharray:none;marker:none;visibility:visible;display:inline;overflow:visible;enable-background:accumulate"
       inkscape:connector-curvature="0" />
  </g>
</svg>
